PathFileType	4	(X/Y/Z)	..\data\2015032\dynamic\2015032_C4_03.trc
DataRate	CameraRate	NumFrames	NumMarkers	Units	OrigDataRate	OrigDataStartFrame	OrigNumFrames
100.000000	100.000000	4	48	mm	100.000000	0	203
Frame#	Time	L_IAS			L_IPS			R_IPS			R_IAS			L_FTC			L_FLE			L_FAX			L_TTC			L_FAL			L_FCC			L_FM1			L_FM2			L_FM5			R_FTC			R_FLE			R_FAX			R_TTC			R_FAL			R_FCC			R_FM1			R_FM2			R_FM5			CV7			TV10			SXS			SJN			L_SIA			L_SRS			L_SAA			L_SAE			L_HLE			L_HME			L_UOA			L_RSP			L_UHE			L_HM2			L_HM5			R_SIA			R_SRS			R_SAA			R_SAE			R_HLE			R_HME			R_UOA			R_RSP			R_UHE			R_HM2			R_HM5			
		X1	Y1	Z1	X2	Y2	Z2	X3	Y3	Z3	X4	Y4	Z4	X5	Y5	Z5	X6	Y6	Z6	X7	Y7	Z7	X8	Y8	Z8	X9	Y9	Z9	X10	Y10	Z10	X11	Y11	Z11	X12	Y12	Z12	X13	Y13	Z13	X14	Y14	Z14	X15	Y15	Z15	X16	Y16	Z16	X17	Y17	Z17	X18	Y18	Z18	X19	Y19	Z19	X20	Y20	Z20	X21	Y21	Z21	X22	Y22	Z22	X23	Y23	Z23	X24	Y24	Z24	X25	Y25	Z25	X26	Y26	Z26	X27	Y27	Z27	X28	Y28	Z28	X29	Y29	Z29	X30	Y30	Z30	X31	Y31	Z31	X32	Y32	Z32	X33	Y33	Z33	X34	Y34	Z34	X35	Y35	Z35	X36	Y36	Z36	X37	Y37	Z37	X38	Y38	Z38	X39	Y39	Z39	X40	Y40	Z40	X41	Y41	Z41	X42	Y42	Z42	X43	Y43	Z43	X44	Y44	Z44	X45	Y45	Z45	X46	Y46	Z46	X47	Y47	Z47	X48	Y48	Z48	

1	0	-80.62218475341798	930.3306884765627	-391.0261535644532	-239.6062316894532	938.6680908203127	-329.4471740722657	-245.4691619873047	936.3140869140627	-221.0681915283204	-87.8113250732422	933.929626464844	-157.0375213623047	-150.7711486816407	857.099060058594	-447.7702941894532	-230.6150970458985	441.2607727050782	-395.798309326172	-251.7193908691407	382.4333496093751	-392.4632263183595	-196.3045043945313	364.9036560058594	-341.0182800292969	-347.3473510742188	67.98609924316408	-313.2848510742188	-393.1614685058595	34.61054611206055	-265.1849365234376	-198.2853546142579	23.9264087677002	-254.425033569336	-202.4514160156251	28.17510604858399	-313.4141540527344	-252.3970336914063	16.39093589782715	-358.4299011230469	-173.862045288086	837.1918945312502	-108.2984313964844	-10.76865673065186	447.5004882812501	-138.6742248535157	-1.740633130073548	395.043914794922	-141.031982421875	63.31077194213869	406.6455688476564	-185.0819244384766	69.01696014404298	65.48563385009767	-200.5308990478516	66.99647521972658	21.01921272277832	-265.3510742187501	241.0249023437501	78.81544494628908	-205.6683197021485	217.6967163085938	78.69601440429689	-159.2704467773438	168.9327545166016	43.70598602294923	-131.2021789550782	-202.4616851806641	1427.714721679688	-274.5561828613282	-272.3254394531251	1204.907104492188	-281.6735534667969	-93.08936309814455	1166.639770507813	-268.0476074218751	-110.6669082641602	1332.431274414063	-262.7420654296876	-271.2608337402344	1239.926635742188	-404.7395019531251	-241.508529663086	1362.126953125	-385.9491577148439	-147.4304962158203	1366.874389648438	-459.8588867187501	-100.2356796264649	1364.737426757813	-455.4262084960939	-67.52857971191408	1061.888549804688	-512.8639526367189	-120.8560180664063	1036.025512695313	-459.1478881835939	-105.0280227661133	1016.198608398438	-500.887664794922	72.21349334716798	865.8621826171877	-426.4635009765626	47.13766860961915	856.047302246094	-497.5109252929689	117.9830703735352	795.6761474609377	-413.2680969238282	62.12087249755861	780.3515625000002	-496.7581176757814	-302.8284301757813	1237.690673828125	-172.5997619628907	-267.2788085937501	1355.097534179688	-182.5524444580078	-212.348861694336	1355.53857421875	-84.51312255859376	-168.36328125	1352.915283203125	-66.70658111572267	-223.235092163086	1044.424438476563	-48.78619384765626	-235.0346679687501	1041.171020507813	-122.7365417480469	-253.0345611572266	1017.949890136719	-80.13796997070314	-120.3657379150391	813.9846191406252	-70.99017333984376	-181.0343627929688	809.1030883789065	-27.69067955017091	-97.02185058593753	727.6557617187501	-59.29975509643556	-192.2846832275391	735.6133422851564	-25.18623542785645	
2	0.01	-73.39570617675783	929.9635009765627	-390.9619445800782	-232.1084899902344	938.0582275390627	-328.4677124023438	-237.3560180664063	935.7766113281252	-220.0767059326172	-79.53585815429689	933.6333618164065	-156.9222564697266	-144.1338195800782	856.6548461914065	-447.3577270507814	-225.7357788085938	441.6168823242189	-395.2455444335939	-247.4251708984376	383.0060424804688	-391.9424743652345	-191.9154052734375	364.6770324707032	-340.9229736328126	-346.7682189941407	69.40045166015626	-313.1666259765626	-392.7766113281251	36.54551315307618	-265.1066284179688	-198.2038726806641	24.16868209838868	-254.7065429687501	-202.3995666503907	28.2046127319336	-313.4850158691407	-252.4597930908204	16.46205711364746	-358.3381652832032	-164.7503662109375	836.711608886719	-107.7475128173828	-2.964456796646119	446.9619750976564	-138.9998474121094	5.97965955734253	394.4164123535157	-141.4776000976563	70.4899139404297	405.8307495117189	-186.2716522216797	74.82883453369142	64.81576538085939	-201.5289764404297	71.93417358398439	20.40206718444825	-266.2540588378907	246.8554229736329	77.54467773437501	-208.3168640136719	224.0675506591797	77.4367141723633	-161.6091003417969	175.4219512939453	42.65913009643555	-133.275390625	-195.3474884033204	1427.28271484375	-273.7976074218751	-265.0658569335938	1204.385009765625	-280.8161621093751	-85.7603225708008	1166.26171875	-267.5144958496094	-103.4966812133789	1332.01611328125	-262.0730285644532	-264.3446044921876	1239.4951171875	-403.8687438964845	-234.2881774902344	1361.69677734375	-385.2478637695314	-140.46435546875	1366.375122070313	-459.149871826172	-93.27407073974611	1364.210327148438	-454.7789611816407	-61.32153320312501	1061.21923828125	-512.0583496093751	-114.6362915039063	1035.465087890625	-458.1796875000001	-98.8365173339844	1015.494201660156	-499.9098205566407	78.85166168212892	865.9160156250002	-424.977264404297	53.7032928466797	855.6521606445315	-495.9075622558595	124.7994384765625	795.906677246094	-411.4331970214845	68.85321044921876	779.9689941406252	-494.7557067871095	-295.4772338867188	1237.097900390625	-171.7920684814453	-259.8515930175782	1354.465454101563	-181.7079772949219	-204.8938140869141	1354.926147460938	-83.73309326171876	-160.8620910644532	1352.31298828125	-65.95667266845705	-216.3254089355469	1043.935180664063	-48.73673248291017	-228.0646057128907	1040.85888671875	-122.6563034057617	-246.2590637207032	1017.694946289063	-80.15841674804689	-114.7880783081055	813.1582641601565	-70.90175628662111	-175.572006225586	808.3908691406252	-27.79364204406739	-91.91945648193361	726.7874755859376	-59.23285293579103	-187.3069610595703	734.9767456054689	-25.39919662475587	
3	0.02	-65.98165130615236	929.635437011719	-390.8756713867189	-224.4044494628907	937.5262451171877	-327.4415893554688	-229.0506591796876	935.3336181640627	-219.0426330566407	-71.07895660400392	933.4367675781252	-156.7815704345703	-137.3254699707032	856.2532958984377	-446.8754272460939	-220.6403961181641	442.0394897460939	-394.6211242675782	-242.9322052001954	383.6548461914063	-391.3581848144532	-187.318603515625	364.4917602539063	-340.7986450195313	-346.1334228515626	70.97788238525392	-313.0685729980469	-392.361053466797	38.66974639892579	-265.0408935546876	-198.0847473144532	24.45223617553712	-255.0269317626954	-202.3219146728516	28.25630187988282	-313.5716247558594	-252.5015869140626	16.57789421081543	-358.2377929687501	-155.5065307617188	836.3486938476565	-107.0906219482422	4.941676616668702	446.5369873046876	-139.3140869140625	13.69459342956543	393.8882141113282	-141.8678588867188	77.56864166259767	404.931121826172	-187.5631408691407	79.5088348388672	64.0641555786133	-202.3543090820313	75.45975494384767	19.71333885192871	-266.9427795410157	251.5685272216797	75.57836151123048	-211.0281219482422	229.4002227783204	75.5967254638672	-163.9553985595703	180.7598114013672	41.22692871093751	-135.3070831298828	-188.2288818359375	1426.9189453125	-272.9678649902344	-257.7197875976563	1203.899780273438	-279.8753967285157	-78.32594299316408	1165.993774414063	-266.9249877929688	-96.28153991699222	1331.692626953125	-261.3462829589844	-257.3939208984376	1239.091674804688	-402.8899230957032	-226.9536285400391	1361.285278320313	-384.4934387207032	-133.5355224609375	1365.9560546875	-458.3778686523439	-86.36215209960939	1363.77294921875	-454.0907592773439	-55.32392883300783	1060.595703125	-511.1847534179689	-108.59912109375	1035.002197265625	-457.1467285156251	-92.83786773681642	1014.891174316406	-498.8828735351564	85.16240692138673	865.8339843750002	-423.5368041992189	59.9193458557129	855.2174072265627	-494.3799743652345	131.2365417480469	795.986267089844	-409.7260742187501	75.1653289794922	779.5270996093752	-492.8685302734376	-288.0484619140626	1236.541259765625	-170.8795928955078	-252.3211059570313	1353.8466796875	-180.7705383300782	-197.3300323486329	1354.36865234375	-82.87554168701173	-153.302963256836	1351.80712890625	-65.13392639160158	-209.3259277343751	1043.55078125	-48.58702087402345	-221.0003356933594	1040.630737304688	-122.470443725586	-239.3471221923829	1017.502746582031	-80.05505371093751	-109.0825500488282	812.4180908203127	-70.7704544067383	-169.9437866210938	807.7783203125002	-27.81132888793946	-86.69039916992189	725.9802246093751	-59.15855026245119	-182.1510772705078	734.4416503906251	-25.52477836608887	
4	0.03	-58.35956954956056	929.3504028320315	-390.7592773437501	-216.4779357910157	937.0827636718752	-326.3737792968751	-220.5523071289063	934.9985351562502	-217.9693145751954	-62.43300628662111	933.3499145507815	-156.6049499511719	-130.3181762695313	855.9002685546877	-446.3213806152345	-215.3128204345704	442.5325317382814	-393.9342041015626	-238.2319793701172	384.3869934082032	-390.7230834960939	-182.5072479248047	364.3463439941407	-340.6590576171876	-345.4413146972657	72.73221588134767	-313.0068664550782	-391.9090881347657	40.98813629150391	-264.9953002929688	-197.9251708984376	24.76834678649903	-255.3872070312501	-202.2170715332032	28.32422256469727	-313.6800231933594	-252.5112457275391	16.73492050170899	-358.1349487304688	-146.1544799804688	836.1223754882815	-106.3258056640625	12.89150524139405	446.2088012695314	-139.5902404785157	21.36614036560059	393.4463806152345	-142.185287475586	84.53293609619142	403.9734191894532	-188.8992156982422	83.25857543945314	63.26358032226564	-203.020492553711	77.82775115966798	19.01260375976563	-267.4506835937501	255.3549041748047	73.02715301513673	-213.7082672119141	233.853256225586	73.26843261718751	-166.2291259765625	185.0955505371094	39.48211669921876	-137.2461242675782	-181.1018981933594	1426.629272460938	-272.0639953613282	-250.2826385498047	1203.456909179688	-278.8540344238282	-70.78020477294923	1165.847534179688	-266.2848510742188	-89.02158355712892	1331.469848632813	-260.5649414062501	-250.4025573730469	1238.718627929688	-401.8048706054689	-219.5333251953126	1360.9150390625	-383.6865539550782	-126.6473999023438	1365.630126953125	-457.5455017089845	-79.49723052978517	1363.4404296875	-453.3667602539064	-49.52250289916994	1060.034545898438	-510.2483215332032	-102.7365646362305	1034.653442382813	-456.0499267578126	-87.02657318115236	1014.406311035156	-497.8096008300782	91.15112304687501	865.6197509765627	-422.1555480957032	65.7872772216797	854.750427246094	-492.9400939941407	137.2968292236328	795.915710449219	-408.1633911132814	81.05617523193361	779.0339965820315	-491.113006591797	-280.5393676757813	1236.020263671875	-169.8689727783203	-244.6946411132813	1353.24951171875	-179.7423400878907	-189.6606597900391	1353.86865234375	-81.94260406494142	-145.6917572021485	1351.39990234375	-64.23899841308595	-202.2379608154297	1043.269775390625	-48.33369827270509	-213.8445739746094	1040.485473632813	-122.176010131836	-232.3039855957032	1017.376342773438	-79.82598114013673	-103.2391891479492	811.7636718750002	-70.59414672851564	-164.140365600586	807.267272949219	-27.73988723754884	-81.3227996826172	725.2314453125001	-59.07465744018556	-176.8027801513672	734.0079956054689	-25.55741119384766	
